<?xml version="1.0" encoding="UTF-8"?>
<svg id="Capa_2" data-name="Capa 2" xmlns="http://www.w3.org/2000/svg" viewBox="0 0 367.06 128.56">
  <defs>
    <style>
      .cls-1 {
        fill: #fff;
      }

      .cls-2 {
        fill: #002e52;
      }

      .cls-3 {
        fill: #fb0d36;
      }
    </style>
  </defs>
  <g id="Capa_1-2" data-name="Capa 1">
    <rect class="cls-1" width="367.06" height="128.56" rx="12" ry="12"/>
    <g>
      <path class="cls-2" d="m79.68,33.21c3.2-.48,7.01-.85,11.18-.85,7.55,0,12.93,1.75,16.5,5.08,3.63,3.32,5.74,8.04,5.74,14.62s-2.05,12.08-5.86,15.83c-3.81,3.81-10.09,5.86-18.01,5.86-3.75,0-6.89-.18-9.55-.48v-40.06Zm5.26,36.01c1.33.24,3.26.3,5.32.3,11.24,0,17.34-6.28,17.34-17.28.06-9.61-5.38-15.71-16.5-15.71-2.72,0-4.77.24-6.16.54v32.15Z"/>
      <path class="cls-2" d="m154.72,52.61c0,14.02-8.52,21.45-18.91,21.45s-18.31-8.34-18.31-20.67c0-12.93,8.04-21.39,18.91-21.39s18.31,8.52,18.31,20.6Zm-31.6.67c0,8.7,4.71,16.5,12.99,16.5s13.05-7.67,13.05-16.92c0-8.1-4.23-16.56-12.99-16.56s-13.05,8.04-13.05,16.98Z"/>
      <path class="cls-2" d="m161.55,73.39v-40.73h5.74l13.05,20.61c3.02,4.77,5.38,9.06,7.31,13.23l.12-.06c-.48-5.44-.6-10.39-.6-16.74v-17.04h4.95v40.73h-5.32l-12.93-20.67c-2.84-4.53-5.56-9.18-7.61-13.6l-.18.06c.3,5.14.42,10.03.42,16.8v17.4h-4.96Z"/>
      <path class="cls-2" d="m207.89,60.58l-4.23,12.81h-5.44l13.84-40.73h6.34l13.9,40.73h-5.62l-4.35-12.81h-14.44Zm13.35-4.11l-3.99-11.72c-.91-2.66-1.51-5.08-2.11-7.43h-.12c-.6,2.42-1.27,4.89-2.05,7.37l-3.99,11.78h12.27Z"/>
      <path class="cls-2" d="m241.36,37.14h-12.39v-4.47h30.15v4.47h-12.45v36.25h-5.32v-36.25Z"/>
      <path class="cls-2" d="m284.75,54.3h-15.83v14.68h17.64v4.41h-22.9v-40.73h21.99v4.41h-16.74v12.87h15.83v4.35Z"/>
    </g>
    <g>
      <path class="cls-3" d="m88.83,87.51h5.64c1.12,0,1.95.05,2.5.14.55.09,1.04.29,1.47.58.43.29.79.69,1.08,1.18.29.49.43,1.04.43,1.65,0,.66-.18,1.27-.53,1.82-.36.55-.84.97-1.45,1.24.86.25,1.52.68,1.98,1.28s.69,1.31.69,2.13c0,.64-.15,1.26-.45,1.87-.3.61-.71,1.09-1.22,1.45-.52.36-1.15.58-1.91.67-.47.05-1.62.08-3.43.1h-4.8v-14.1Zm2.85,2.35v3.26h1.87c1.11,0,1.8-.02,2.07-.05.49-.06.87-.23,1.15-.5.28-.28.42-.65.42-1.1s-.12-.79-.36-1.06-.6-.44-1.07-.5c-.28-.03-1.09-.05-2.43-.05h-1.64Zm0,5.61v3.77h2.64c1.03,0,1.68-.03,1.95-.09.42-.08.77-.26,1.03-.56.27-.3.4-.7.4-1.2,0-.42-.1-.78-.31-1.08s-.5-.51-.89-.64c-.39-.13-1.23-.2-2.53-.2h-2.3Z"/>
      <path class="cls-3" d="m106.75,101.61v-5.93l-5.17-8.17h3.34l3.32,5.58,3.25-5.58h3.28l-5.18,8.19v5.92h-2.84Z"/>
      <path class="cls-3" d="m130.33,96.42l2.76.88c-.42,1.54-1.13,2.68-2.11,3.43s-2.23,1.12-3.75,1.12c-1.87,0-3.41-.64-4.62-1.92-1.21-1.28-1.81-3.03-1.81-5.25,0-2.35.61-4.17,1.82-5.47,1.21-1.3,2.81-1.95,4.78-1.95,1.72,0,3.13.51,4.2,1.53.64.6,1.12,1.47,1.44,2.6l-2.82.67c-.17-.73-.51-1.31-1.04-1.73-.53-.42-1.17-.63-1.93-.63-1.05,0-1.89.38-2.54,1.12-.65.75-.98,1.97-.98,3.65,0,1.78.32,3.05.96,3.81.64.76,1.47,1.13,2.5,1.13.76,0,1.41-.24,1.95-.72.54-.48.94-1.24,1.17-2.27Z"/>
      <path class="cls-3" d="m135.61,101.61v-13.99h2.85v11.61h7.08v2.38h-9.93Z"/>
      <path class="cls-3" d="m147.48,101.61v-14.1h2.85v14.1h-2.85Z"/>
      <path class="cls-3" d="m162.06,96.42l2.76.88c-.42,1.54-1.13,2.68-2.11,3.43s-2.23,1.12-3.75,1.12c-1.87,0-3.41-.64-4.62-1.92-1.21-1.28-1.81-3.03-1.81-5.25,0-2.35.61-4.17,1.82-5.47,1.21-1.3,2.81-1.95,4.78-1.95,1.72,0,3.13.51,4.2,1.53.64.6,1.12,1.47,1.44,2.6l-2.82.67c-.17-.73-.51-1.31-1.04-1.73-.53-.42-1.17-.63-1.93-.63-1.05,0-1.89.38-2.54,1.12-.65.75-.98,1.97-.98,3.65,0,1.78.32,3.05.96,3.81.64.76,1.47,1.13,2.5,1.13.76,0,1.41-.24,1.95-.72.54-.48.94-1.24,1.17-2.27Z"/>
      <path class="cls-3" d="m167.3,101.61v-14.1h2.85v6.26l5.75-6.26h3.83l-5.31,5.49,5.6,8.61h-3.68l-3.88-6.62-2.31,2.36v4.26h-2.85Z"/>
      <path class="cls-3" d="m181.4,101.61v-14.1h2.85v14.1h-2.85Z"/>
      <path class="cls-3" d="m186.99,101.61v-14.1h2.77l5.77,9.42v-9.42h2.65v14.1h-2.86l-5.68-9.2v9.2h-2.65Z"/>
      <path class="cls-3" d="m207.75,96.42v-2.38h6.14v5.62c-.6.58-1.46,1.09-2.59,1.53-1.13.44-2.28.66-3.44.66-1.48,0-2.76-.31-3.86-.93s-1.92-1.5-2.47-2.66c-.55-1.15-.83-2.4-.83-3.76,0-1.47.31-2.77.92-3.92.62-1.14,1.52-2.02,2.7-2.63.9-.47,2.03-.7,3.38-.7,1.75,0,3.12.37,4.1,1.1.98.73,1.62,1.75,1.9,3.04l-2.83.53c-.2-.69-.57-1.24-1.12-1.64-.55-.4-1.23-.6-2.05-.6-1.24,0-2.23.39-2.97,1.18-.73.79-1.1,1.96-1.1,3.51,0,1.67.37,2.93,1.12,3.77s1.72,1.25,2.92,1.25c.6,0,1.19-.12,1.79-.35.6-.23,1.11-.52,1.54-.85v-1.79h-3.26Z"/>
      <path class="cls-3" d="m222,101.61v-14.1h2.85v5.55h5.58v-5.55h2.85v14.1h-2.85v-6.17h-5.58v6.17h-2.85Z"/>
      <path class="cls-3" d="m236.21,101.61v-14.1h10.46v2.39h-7.61v3.13h7.08v2.38h-7.08v3.84h7.88v2.38h-10.72Z"/>
      <path class="cls-3" d="m249.36,101.61v-14.1h5.99c1.51,0,2.6.13,3.29.38.68.25,1.23.7,1.64,1.35s.62,1.39.62,2.22c0,1.06-.31,1.93-.93,2.62-.62.69-1.55,1.12-2.79,1.3.62.36,1.12.75,1.52,1.18.4.43.94,1.19,1.62,2.29l1.72,2.75h-3.41l-2.06-3.07c-.73-1.1-1.23-1.79-1.5-2.07-.27-.29-.55-.48-.86-.59-.3-.11-.78-.16-1.43-.16h-.58v5.89h-2.85Zm2.85-8.14h2.11c1.37,0,2.22-.06,2.56-.17.34-.12.61-.31.8-.6s.29-.63.29-1.06c0-.47-.13-.86-.38-1.15-.25-.29-.61-.48-1.07-.55-.23-.03-.92-.05-2.08-.05h-2.22v3.58Z"/>
      <path class="cls-3" d="m263.58,101.61v-14.1h10.46v2.39h-7.61v3.13h7.08v2.38h-7.08v3.84h7.88v2.38h-10.72Z"/>
    </g>
  </g>
</svg>