<?xml version="1.0" encoding="UTF-8"?>
<svg id="Capa_2" data-name="Capa 2" xmlns="http://www.w3.org/2000/svg" xmlns:xlink="http://www.w3.org/1999/xlink" viewBox="0 0 929 619.07">
  <defs>
    <style>
      .cls-1 {
        fill: #fff;
      }

      .cls-2 {
        fill: #ba2940;
      }

      .cls-3 {
        clip-path: url(#clippath);
      }

      .cls-4 {
        fill: none;
      }

      .cls-5 {
        fill: url(#linear-gradient);
      }
    </style>
    <clipPath id="clippath">
      <rect class="cls-4" width="929" height="619.07"/>
    </clipPath>
    <linearGradient id="linear-gradient" x1="-117.09" y1="265.47" x2="406.4" y2="-131.32" gradientUnits="userSpaceOnUse">
      <stop offset="0" stop-color="#213758"/>
      <stop offset=".44" stop-color="#263f65"/>
      <stop offset="1" stop-color="#2f4d7d"/>
    </linearGradient>
  </defs>
  <g id="Layer_1" data-name="Layer 1">
    <g class="cls-3">
      <g>
        <path class="cls-2" d="m-84.24,523.19c7.05-8.05,13.98-15.59,20.94-23.04,6.95-7.44,13.91-14.72,20.89-21.94,13.96-14.42,28-28.56,42.12-42.56,28.25-27.99,56.85-55.4,85.76-82.45,28.92-27.04,58.16-53.69,87.75-79.97,29.6-26.26,59.54-52.15,89.92-77.57,30.39-25.41,61.2-50.37,92.61-74.69,31.42-24.3,63.42-47.99,96.36-70.63,16.48-11.31,33.2-22.36,50.25-33.02,17.06-10.66,34.45-20.94,52.37-30.6,8.96-4.83,18.05-9.5,27.32-13.97,9.26-4.47,18.72-8.71,28.41-12.65,9.68-3.95,19.65-7.56,29.95-10.7,1.29-.39,2.6-.76,3.89-1.14l1.95-.56,1.98-.53c1.32-.35,2.63-.71,3.96-1.04l4.01-.97c5.38-1.25,10.87-2.33,16.51-3.17l8.66,48.95c-4,.89-8.05,1.99-12.13,3.24l-3.07.97c-1.02.33-2.05.7-3.08,1.05l-1.54.53-1.54.57c-1.03.38-2.05.74-3.08,1.14-8.23,3.15-16.48,6.78-24.67,10.8-8.19,4.01-16.34,8.34-24.42,12.95-8.08,4.6-16.1,9.44-24.05,14.46-15.9,10.04-31.55,20.79-46.98,31.97-15.43,11.18-30.64,22.8-45.67,34.71-30.06,23.84-59.41,48.85-88.26,74.5-28.84,25.67-57.18,52.03-85.11,78.85-27.93,26.82-55.45,54.12-82.61,81.77-27.16,27.66-53.96,55.68-80.38,84.02-26.41,28.34-52.47,57-77.95,85.95-12.73,14.48-25.32,29.03-37.63,43.63-6.15,7.3-12.23,14.61-18.16,21.9-5.92,7.28-11.75,14.59-17.13,21.66l-88.17-72.43Z"/>
        <g>
          <path class="cls-5" d="m505.74-25.43H-20.57v435.49C72.78,305.78,349.15,60.74,505.74-25.43Z"/>
          <path class="cls-1" d="m67.89,43.51c1.54,3.08,3.09,6.16,4.62,9.25,3.7.45,7.4.9,11.1,1.35-2.8,2.44-5.59,4.89-8.36,7.35.5,3.41,1.01,6.81,1.51,10.22-3.22-1.56-6.44-3.12-9.65-4.69-3.28,1.66-6.56,3.33-9.83,5,.69-3.44,1.39-6.87,2.1-10.3-2.56-2.39-5.11-4.77-7.66-7.17,3.64-.55,7.28-1.09,10.93-1.64,1.73-3.13,3.48-6.26,5.25-9.37Zm76.66,8.39c-3.94.53-7.88,1.07-11.82,1.61,2.59,2.35,5.18,4.7,7.76,7.05-.98,3.38-1.93,6.77-2.87,10.17,3.58-1.65,7.17-3.3,10.76-4.94,3.29,1.54,6.59,3.08,9.88,4.63-.31-3.36-.62-6.72-.92-10.08,3.09-2.42,6.19-4.83,9.3-7.23-3.87-.44-7.73-.88-11.6-1.33-1.41-3.03-2.83-6.06-4.25-9.08-2.1,3.06-4.18,6.13-6.24,9.2Zm84.73-.98c-4.01.53-8.02,1.06-12.03,1.59,2.43,2.31,4.85,4.62,7.27,6.94-1.24,3.33-2.46,6.68-3.65,10.03,3.71-1.63,7.43-3.26,11.15-4.88,3.17,1.51,6.33,3.04,9.49,4.56-.06-3.31-.1-6.63-.14-9.94,3.25-2.39,6.52-4.76,9.79-7.12-3.8-.43-7.59-.87-11.39-1.3-1.16-2.97-2.32-5.95-3.48-8.92-2.35,3-4.69,6.01-7.02,9.04Zm82.53-.98c-3.84.52-7.69,1.04-11.53,1.56,2.55,2.73,3.81,4.09,6.33,6.83-1.45,3.28-2.86,6.58-4.24,9.89,3.64-1.61,7.28-3.21,10.92-4.81,2.86,1.49,5.71,2.99,8.56,4.5.19-3.27.4-6.54.64-9.8,3.22-2.35,6.46-4.69,9.7-7.01-3.5-.43-7-.86-10.49-1.28-1-3.51-1.49-5.26-2.48-8.75-2.48,2.95-4.94,5.9-7.39,8.87ZM24.55,17.82c-3.49.51-6.97,1.02-10.45,1.55,2.49,2.44,4.99,4.87,7.5,7.29-.61,3.45-1.22,6.9-1.82,10.35,3.11-1.67,6.24-3.32,9.38-4.95,3.15,1.61,6.3,3.2,9.45,4.79-.56-3.43-1.11-6.85-1.67-10.27,2.64-2.46,5.31-4.9,7.99-7.31-3.61-.48-7.23-.97-10.84-1.46-1.56-3.12-3.13-6.24-4.69-9.36-1.64,3.12-3.25,6.25-4.85,9.39Zm80.82-.25c-3.95.5-7.9,1-11.84,1.51,2.65,2.37,5.3,4.74,7.95,7.12-.91,3.37-1.8,6.75-2.67,10.13,3.57-1.63,7.15-3.25,10.73-4.85,3.36,1.56,6.73,3.12,10.09,4.68-.38-3.35-.76-6.7-1.14-10.05,3.09-2.39,6.18-4.77,9.29-7.14-3.94-.47-7.87-.95-11.81-1.42-1.5-3.04-3.01-6.08-4.52-9.11-2.04,3.04-4.07,6.08-6.08,9.14Zm86.86-.25c-4.16.49-8.32.98-12.48,1.47,2.57,2.31,5.13,4.62,7.68,6.94-1.23,3.29-2.44,6.6-3.62,9.91,3.83-1.6,7.67-3.18,11.52-4.75,3.33,1.52,6.65,3.05,9.97,4.58-.11-3.28-.21-6.55-.3-9.83,3.37-2.34,6.75-4.66,10.14-6.96-3.99-.46-7.97-.92-11.96-1.39-1.27-2.96-2.54-5.91-3.82-8.87-2.4,2.95-4.77,5.92-7.14,8.9Zm87.22-.25c-4.11.48-8.22.95-12.32,1.43,2.29,2.25,4.57,4.5,6.83,6.77-1.52,3.21-3,6.44-4.46,9.68,3.88-1.56,7.75-3.11,11.64-4.65,3.07,1.48,6.13,2.98,9.19,4.48.2-3.2.41-6.41.64-9.61,3.46-2.28,6.93-4.55,10.41-6.79-3.78-.45-7.55-.9-11.33-1.35-1.11-3.46-1.66-5.18-2.77-8.62-2.63,2.87-5.24,5.75-7.83,8.65Zm81.89-.25c-3.78.47-7.57.93-11.36,1.4,2.24,2.63,3.34,3.95,5.54,6.59-1.7,3.13-3.37,6.29-4.99,9.46,3.67-1.52,7.33-3.03,11-4.55,3.17,1.75,4.74,2.63,7.83,4.38.57-3.77.87-5.65,1.5-9.38,3.31-2.22,6.63-4.43,9.96-6.62-3.31-.44-6.62-.88-9.94-1.31-.62-3.36-.93-5.04-1.54-8.37-2.68,2.79-5.35,5.59-8,8.4ZM61.08,123.76c-3.5.58-6.99,1.15-10.48,1.74,2.49,2.39,4.98,4.78,7.47,7.16-.64,3.46-1.26,6.93-1.89,10.4,3.13-1.71,6.26-3.41,9.4-5.1,3.12,1.56,6.24,3.13,9.36,4.68-.55-3.44-1.09-6.88-1.63-10.32,2.61-2.51,5.23-5.01,7.86-7.49-3.55-.42-7.09-.85-10.64-1.28-1.52-3.1-3.05-6.2-4.58-9.3-1.64,3.16-3.27,6.33-4.88,9.5Zm77.89-1.64c-3.71.58-7.42,1.15-11.13,1.73,2.53,2.38,5.06,4.76,7.59,7.15-.81,3.46-1.6,6.92-2.38,10.39,3.35-1.7,6.69-3.4,10.04-5.1,3.18,1.56,6.37,3.12,9.55,4.68-.43-3.44-.85-6.87-1.26-10.31,2.83-2.5,5.67-4.99,8.51-7.48-3.67-.43-7.34-.85-11.01-1.28-1.45-3.09-2.9-6.18-4.35-9.27-1.87,3.15-3.72,6.31-5.56,9.47Zm79.96-1.64c-3.76.58-7.52,1.15-11.28,1.73,2.42,2.37,4.84,4.75,7.25,7.14-.99,3.46-1.96,6.92-2.91,10.39,3.44-1.7,6.87-3.4,10.31-5.1,3.1,1.56,6.19,3.12,9.28,4.68-.26-3.44-.5-6.87-.73-10.31,2.94-2.5,5.89-4.98,8.85-7.46-3.62-.43-7.24-.85-10.86-1.27-1.27-3.08-2.54-6.16-3.81-9.24-2.05,3.14-4.08,6.28-6.1,9.44ZM24.17,88.96c-3.36.56-6.72,1.13-10.08,1.71,2.41,2.4,4.83,4.8,7.26,7.18-.58,3.46-1.16,6.93-1.74,10.39,3.01-1.71,6.03-3.4,9.06-5.08,3.04,1.57,6.09,3.13,9.14,4.69-.56-3.43-1.12-6.87-1.69-10.3,2.52-2.5,5.05-4.99,7.59-7.46-3.46-.43-6.92-.87-10.38-1.31-1.52-3.1-3.03-6.21-4.55-9.32-1.55,3.16-3.09,6.32-4.62,9.49Zm76.79-1.43c-3.71.56-7.42,1.13-11.13,1.7,2.56,2.37,5.12,4.75,7.67,7.13-.77,3.44-1.54,6.88-2.28,10.32,3.34-1.69,6.68-3.37,10.03-5.05,3.22,1.55,6.44,3.11,9.66,4.66-.46-3.41-.91-6.82-1.36-10.23,2.83-2.48,5.67-4.95,8.53-7.4-3.71-.43-7.42-.86-11.13-1.29-1.5-3.08-3-6.15-4.5-9.22-1.85,3.12-3.67,6.26-5.48,9.4Zm81.42-1.43c-3.87.56-7.74,1.12-11.61,1.68,2.51,2.35,5.01,4.71,7.51,7.07-1,3.41-1.99,6.83-2.95,10.26,3.53-1.68,7.06-3.35,10.6-5.02,3.2,1.54,6.4,3.08,9.59,4.63-.27-3.39-.52-6.78-.77-10.17,3.04-2.46,6.09-4.91,9.14-7.35-3.75-.43-7.51-.85-11.26-1.28-1.33-3.04-2.66-6.09-4-9.13-2.1,3.09-4.18,6.2-6.25,9.31Zm81.69-1.43c-3.83.56-7.65,1.11-11.48,1.67,2.3,2.33,4.6,4.66,6.89,7.01-1.21,3.39-2.39,6.79-3.54,10.19,3.55-1.67,7.11-3.33,10.67-4.99,3.01,1.53,6.02,3.06,9.02,4.6-.05-3.37-.09-6.74-.11-10.1,3.1-2.44,6.2-4.87,9.31-7.29-3.59-.42-7.19-.85-10.78-1.27-1.08-3.01-2.16-6.02-3.24-9.04-2.26,3.06-4.51,6.13-6.74,9.21ZM60.56,195.18c-3.42.57-6.85,1.14-10.27,1.72,2.47,2.41,4.95,4.82,7.43,7.22-.58,3.48-1.16,6.96-1.73,10.44,3.06-1.7,6.12-3.39,9.19-5.08,3.08,1.59,6.17,3.17,9.26,4.76-.59-3.47-1.19-6.93-1.77-10.4,2.51-2.51,5.02-5.02,7.54-7.53-3.47-.44-6.93-.88-10.4-1.32-1.54-3.13-3.07-6.25-4.61-9.38-1.55,3.18-3.1,6.37-4.64,9.56Zm75.51-1.45c-3.56.58-7.11,1.15-10.67,1.73,2.52,2.42,5.04,4.85,7.55,7.28-.67,3.51-1.32,7.02-1.97,10.53,3.18-1.71,6.36-3.42,9.55-5.12,3.13,1.6,6.26,3.2,9.39,4.8-.54-3.49-1.07-6.99-1.59-10.48,2.63-2.53,5.28-5.06,7.92-7.58-3.55-.44-7.09-.89-10.64-1.33-1.5-3.15-3.01-6.29-4.51-9.44-1.69,3.2-3.37,6.41-5.03,9.62Zm-112.03-33.5c-3.32.58-6.63,1.16-9.95,1.74,2.39,2.4,4.79,4.79,7.19,7.17-.57,3.47-1.13,6.93-1.7,10.4,2.98-1.7,5.96-3.4,8.95-5.09,3.01,1.57,6.02,3.14,9.03,4.7-.58-3.44-1.15-6.89-1.73-10.34,2.45-2.51,4.91-5.01,7.38-7.51-3.39-.43-6.78-.86-10.17-1.29-1.5-3.11-3-6.22-4.5-9.33-1.5,3.17-3,6.35-4.5,9.53Zm74.49-1.63c-3.55.58-7.11,1.16-10.66,1.74,2.52,2.4,5.03,4.8,7.55,7.2-.66,3.48-1.32,6.96-1.96,10.45,3.18-1.71,6.36-3.41,9.55-5.11,3.14,1.57,6.28,3.15,9.42,4.73-.54-3.46-1.07-6.92-1.59-10.38,2.64-2.52,5.3-5.03,7.96-7.53-3.57-.43-7.13-.86-10.7-1.29-1.52-3.12-3.03-6.23-4.55-9.35-1.68,3.18-3.36,6.36-5.01,9.55Zm77.7-1.63c-3.66.58-7.32,1.16-10.98,1.75,2.49,2.4,4.98,4.81,7.46,7.22-.81,3.49-1.6,6.99-2.38,10.49,3.3-1.72,6.61-3.43,9.92-5.14,3.13,1.58,6.26,3.16,9.39,4.75-.42-3.48-.83-6.95-1.22-10.43,2.78-2.53,5.57-5.04,8.36-7.56-3.6-.43-7.19-.86-10.79-1.29-1.41-3.12-2.82-6.24-4.23-9.37-1.85,3.18-3.69,6.37-5.52,9.57Zm-115.27,109.97c-3.42.54-6.84,1.08-10.26,1.62,2.51,2.44,5.01,4.88,7.52,7.32-.54,3.48-1.08,6.97-1.62,10.45,3.05-1.66,6.11-3.33,9.16-5,3.11,1.62,6.21,3.25,9.32,4.88-.65-3.48-1.29-6.97-1.92-10.45,2.46-2.49,4.92-4.99,7.38-7.48-3.45-.48-6.9-.95-10.35-1.43-1.58-3.15-3.15-6.3-4.72-9.46-1.5,3.18-3,6.37-4.5,9.55Zm-36.85-35.34c-3.34.56-6.69,1.11-10.03,1.67,2.42,2.41,4.84,4.82,7.27,7.23-.57,3.46-1.13,6.93-1.7,10.39,3.01-1.67,6.02-3.34,9.02-5.02,3.03,1.6,6.07,3.19,9.11,4.79-.6-3.46-1.2-6.91-1.8-10.37,2.44-2.49,4.88-4.98,7.32-7.47-3.39-.45-6.77-.91-10.16-1.36-1.52-3.12-3.04-6.25-4.55-9.37-1.49,3.17-2.98,6.34-4.48,9.51Zm73.73-1.14c-3.47.56-6.94,1.12-10.41,1.69,2.52,2.44,5.04,4.87,7.56,7.31-.58,3.5-1.15,7-1.71,10.51,3.09-1.69,6.18-3.38,9.27-5.07,3.12,1.61,6.24,3.23,9.35,4.84-.61-3.5-1.22-6.99-1.82-10.49,2.52-2.52,5.04-5.04,7.57-7.55-3.49-.46-6.98-.92-10.47-1.37-1.56-3.15-3.11-6.31-4.67-9.47-1.57,3.2-3.12,6.4-4.67,9.61Zm-73.46,72.56c-3.43.52-6.87,1.03-10.3,1.55,2.49,2.44,4.99,4.88,7.48,7.32-.58,3.46-1.15,6.92-1.74,10.37,3.09-1.63,6.18-3.26,9.26-4.9,3.11,1.64,6.23,3.27,9.34,4.9-.63-3.47-1.26-6.93-1.89-10.4,2.47-2.46,4.94-4.92,7.4-7.39-3.45-.49-6.9-.99-10.34-1.48-1.56-3.14-3.12-6.29-4.68-9.43-1.51,3.16-3.03,6.31-4.55,9.47Z"/>
        </g>
      </g>
    </g>
  </g>
</svg>