<?xml version="1.0" encoding="UTF-8"?>
<svg id="Capa_2" data-name="Capa 2" xmlns="http://www.w3.org/2000/svg" viewBox="0 0 48.55 48.55">
  <defs>
    <style>
      .cls-1 {
        fill: #fff;
      }

      .cls-2 {
        fill: #01304d;
      }
    </style>
  </defs>
  <g id="Capa_1-2" data-name="Capa 1">
    <g>
      <circle class="cls-2" cx="24.28" cy="24.28" r="24.28" transform="translate(-10.06 24.28) rotate(-45)"/>
      <g>
        <path class="cls-1" d="m31.12,9.02h-13.69c-4.65,0-8.41,3.77-8.41,8.41v13.69c0,4.65,3.77,8.41,8.41,8.41h13.69c4.65,0,8.41-3.77,8.41-8.41v-13.69c0-4.65-3.77-8.41-8.41-8.41Zm5.95,22.07c0,3.3-2.68,5.98-5.98,5.98h-13.62c-3.3,0-5.98-2.68-5.98-5.98v-13.62c0-3.3,2.68-5.98,5.98-5.98h13.62c3.3,0,5.98,2.68,5.98,5.98v13.62Z"/>
        <path class="cls-1" d="m24.28,16.23c-4.44,0-8.04,3.6-8.04,8.04s3.6,8.04,8.04,8.04,8.04-3.6,8.04-8.04-3.6-8.04-8.04-8.04Zm0,13.29c-2.9,0-5.25-2.35-5.25-5.25s2.35-5.25,5.25-5.25,5.25,2.35,5.25,5.25-2.35,5.25-5.25,5.25Z"/>
        <path class="cls-1" d="m34.4,15.97c0,1-.81,1.8-1.8,1.8s-1.8-.81-1.8-1.8.81-1.8,1.8-1.8,1.8.81,1.8,1.8Z"/>
      </g>
    </g>
  </g>
</svg>