<?xml version="1.0" encoding="UTF-8"?>
<svg id="Capa_2" data-name="Capa 2" xmlns="http://www.w3.org/2000/svg" xmlns:xlink="http://www.w3.org/1999/xlink" viewBox="0 0 515.43 545.76">
  <defs>
    <style>
      .cls-1, .cls-2 {
        fill: #fff;
      }

      .cls-3 {
        letter-spacing: 0em;
      }

      .cls-4 {
        letter-spacing: .02em;
      }

      .cls-5 {
        fill: #364c8e;
      }

      .cls-6 {
        fill: #b24823;
      }

      .cls-7 {
        fill: url(#linear-gradient);
      }

      .cls-2 {
        font-family: Arial-BoldMT, Arial;
        font-size: 40.75px;
        font-weight: 700;
      }
    </style>
    <linearGradient id="linear-gradient" x1="0" y1="272.88" x2="515.43" y2="272.88" gradientUnits="userSpaceOnUse">
      <stop offset="0" stop-color="#213758"/>
      <stop offset=".44" stop-color="#263f65"/>
      <stop offset="1" stop-color="#2f4d7d"/>
    </linearGradient>
  </defs>
  <g id="Layer_1" data-name="Layer 1">
    <g>
      <path class="cls-7" d="m245.63,12.22l-24.88,23.99s-12.43,37.69-21.66,42.65c-9.23,4.96-89.12,47.78-98.01,58.93-8.89,11.14-19.03,18.55-19.03,18.55,0,0,8.03,2.97,2.79,17.84-5.24,14.87-38.92,76.37-42.92,79.41-4,3.04-10.51,15.5-10.59,23.05s-3.26,14.08,0,19.58,12.05,8.84,15.59,15.52c3.53,6.68-2.26,12.11,1.89,17.74,4.15,5.63,7.82,4.38,8.9,15.44,1.09,11.06,1.14,15.24-8.9,16.91-10.04,1.67-7.38-5.82-17.47-7.5-10.1-1.68-19.15-6.16-18.38-1.42.77,4.75,10.83,7.25-.05,14.76-10.87,7.51-12.9,16.94-12.9,16.94l141.61,75.97-28.27,54.61,70.24,30.59,2.08-60.27s5.73,9.81,27.09,8.18c21.36-1.64,45.15-4.14,46.19-4.14s134.61-4.04,134.61-4.04l-11.69-74.92,37.51-90.09h96.06l-51.59-105.12,37.39-45.21-28.38-15.01-88.49-70.19S315.22-1.94,314.31.03c-.9,1.97-28.9,16.61-28.9,16.61l-23.25-4.06-16.53-.37Z"/>
      <g>
        <path class="cls-5" d="m310.14,258.88l-54.26,54.26-54.26-54.26c-29.97-29.97-29.97-78.56,0-108.53h0c29.97-29.97,78.56-29.97,108.53,0h0c29.97,29.97,29.97,78.56,0,108.53Z"/>
        <path class="cls-1" d="m186.69,237.67c3.66,7.66,8.57,14.86,14.92,21.2l54.26,54.26,54.26-54.26c6.34-6.34,11.26-13.55,14.92-21.2h-138.36Z"/>
        <path class="cls-6" d="m200.78,257.97c.29.3.54.61.83.91l26.67,26.67h55.18l26.67-26.67c.29-.29.54-.61.83-.91h-110.19Z"/>
        <polygon class="cls-1" points="255.87 147.52 268.48 172.72 296.34 176.92 276.27 196.69 280.88 224.48 255.87 211.5 230.87 224.48 235.48 196.69 215.41 176.92 243.27 172.72 255.87 147.52"/>
      </g>
      <text class="cls-2" transform="translate(159.81 361.43)"><tspan class="cls-4" x="0" y="0">DOWNE</tspan><tspan class="cls-3" x="161.3" y="0">Y</tspan></text>
    </g>
  </g>
</svg>