<?xml version="1.0" encoding="UTF-8"?>
<svg xmlns="http://www.w3.org/2000/svg" viewBox="0 0 1920 261.69">
  <defs>
    <style>
      .cls-1 {
        fill: #fff;
      }

      .cls-2 {
        isolation: isolate;
      }

      .cls-3 {
        fill: #051a35;
        mix-blend-mode: multiply;
        opacity: .9;
      }

      .cls-4 {
        fill: #ba2940;
      }
    </style>
  </defs>
  <g class="cls-2">
    <g id="Capa_2" data-name="Capa 2">
      <g id="Layer_1" data-name="Layer 1">
        <g>
          <rect class="cls-4" y="183.9" width="1920" height="77.79"/>
          <g>
            <rect class="cls-3" width="1920" height="151.92"/>
            <g>
              <polygon class="cls-1" points="156.41 58 187.48 62.65 164.9 84.48 170.08 115.46 142.34 100.73 114.47 115.23 119.91 84.29 97.51 62.28 128.61 57.89 142.63 29.78 156.41 58"/>
              <polygon class="cls-1" points="336.89 58 367.96 62.65 345.38 84.48 350.56 115.46 322.82 100.73 294.95 115.23 300.39 84.29 277.99 62.28 309.09 57.89 323.11 29.78 336.89 58"/>
              <polygon class="cls-1" points="517.37 58 548.44 62.65 525.86 84.48 531.04 115.46 503.29 100.73 475.43 115.23 480.87 84.29 458.47 62.28 489.57 57.89 503.59 29.78 517.37 58"/>
              <polygon class="cls-1" points="697.85 58 728.92 62.65 706.34 84.48 711.52 115.46 683.77 100.73 655.91 115.23 661.35 84.29 638.95 62.28 670.05 57.89 684.07 29.78 697.85 58"/>
              <polygon class="cls-1" points="878.33 58 909.4 62.65 886.81 84.48 892 115.46 864.25 100.73 836.39 115.23 841.83 84.29 819.43 62.28 850.53 57.89 864.55 29.78 878.33 58"/>
              <polygon class="cls-1" points="1059.41 58 1090.48 62.65 1067.9 84.48 1073.08 115.46 1045.34 100.73 1017.47 115.23 1022.91 84.29 1000.51 62.28 1031.61 57.89 1045.63 29.78 1059.41 58"/>
              <polygon class="cls-1" points="1239.89 58 1270.96 62.65 1248.38 84.48 1253.56 115.46 1225.82 100.73 1197.95 115.23 1203.39 84.29 1180.99 62.28 1212.09 57.89 1226.11 29.78 1239.89 58"/>
              <polygon class="cls-1" points="1420.37 58 1451.44 62.65 1428.86 84.48 1434.04 115.46 1406.29 100.73 1378.43 115.23 1383.87 84.29 1361.47 62.28 1392.57 57.89 1406.59 29.78 1420.37 58"/>
              <polygon class="cls-1" points="1600.85 58 1631.92 62.65 1609.34 84.48 1614.52 115.46 1586.77 100.73 1558.91 115.23 1564.35 84.29 1541.95 62.28 1573.05 57.89 1587.07 29.78 1600.85 58"/>
              <polygon class="cls-1" points="1781.33 58 1812.4 62.65 1789.81 84.48 1795 115.46 1767.25 100.73 1739.39 115.23 1744.83 84.29 1722.43 62.28 1753.53 57.89 1767.55 29.78 1781.33 58"/>
            </g>
          </g>
        </g>
      </g>
    </g>
  </g>
</svg>