<?xml version="1.0" encoding="UTF-8"?>
<svg xmlns="http://www.w3.org/2000/svg" viewBox="0 0 1919 130.85">
  <defs>
    <style>
      .cls-1 {
        fill: #fff;
      }

      .cls-2 {
        isolation: isolate;
      }

      .cls-3 {
        fill: #051a35;
        mix-blend-mode: multiply;
        opacity: .9;
      }

      .cls-4 {
        fill: #ba2940;
      }
    </style>
  </defs>
  <g class="cls-2">
    <g id="Capa_2" data-name="Capa 2">
      <g id="Layer_1" data-name="Layer 1">
        <g>
          <g>
            <rect class="cls-4" y="91.95" width="960.03" height="38.9"/>
            <g>
              <rect class="cls-3" width="960.03" height="75.96"/>
              <g>
                <polygon class="cls-1" points="78.21 29 93.74 31.32 82.45 42.24 85.04 57.73 71.17 50.37 57.24 57.62 59.96 42.15 48.76 31.14 64.31 28.94 71.32 14.89 78.21 29"/>
                <polygon class="cls-1" points="168.45 29 183.99 31.32 172.69 42.24 175.28 57.73 161.41 50.37 147.48 57.62 150.2 42.15 139 31.14 154.55 28.94 161.56 14.89 168.45 29"/>
                <polygon class="cls-1" points="258.69 29 274.23 31.32 262.94 42.24 265.53 57.73 251.65 50.37 237.72 57.62 240.44 42.15 229.24 31.14 244.79 28.94 251.8 14.89 258.69 29"/>
                <polygon class="cls-1" points="348.94 29 364.47 31.32 353.18 42.24 355.77 57.73 341.9 50.37 327.96 57.62 330.68 42.15 319.48 31.14 335.03 28.94 342.04 14.89 348.94 29"/>
                <polygon class="cls-1" points="439.18 29 454.71 31.32 443.42 42.24 446.01 57.73 432.14 50.37 418.21 57.62 420.93 42.15 409.72 31.14 425.28 28.94 432.29 14.89 439.18 29"/>
                <polygon class="cls-1" points="529.72 29 545.26 31.32 533.96 42.24 536.56 57.73 522.68 50.37 508.75 57.62 511.47 42.15 500.27 31.14 515.82 28.94 522.83 14.89 529.72 29"/>
                <polygon class="cls-1" points="619.97 29 635.5 31.32 624.21 42.24 626.8 57.73 612.93 50.37 598.99 57.62 601.71 42.15 590.51 31.14 606.06 28.94 613.07 14.89 619.97 29"/>
                <polygon class="cls-1" points="710.21 29 725.74 31.32 714.45 42.24 717.04 57.73 703.17 50.37 689.24 57.62 691.95 42.15 680.75 31.14 696.31 28.94 703.31 14.89 710.21 29"/>
                <polygon class="cls-1" points="800.45 29 815.98 31.32 804.69 42.24 807.28 57.73 793.41 50.37 779.48 57.62 782.2 42.15 771 31.14 786.55 28.94 793.56 14.89 800.45 29"/>
                <polygon class="cls-1" points="890.69 29 906.23 31.32 894.93 42.24 897.52 57.73 883.65 50.37 869.72 57.62 872.44 42.15 861.24 31.14 876.79 28.94 883.8 14.89 890.69 29"/>
              </g>
            </g>
          </g>
          <g>
            <rect class="cls-4" x="958.97" y="91.95" width="960.03" height="38.9"/>
            <g>
              <rect class="cls-3" x="958.97" width="960.03" height="75.96"/>
              <g>
                <polygon class="cls-1" points="1037.18 29 1052.71 31.32 1041.42 42.24 1044.01 57.73 1030.14 50.37 1016.21 57.62 1018.93 42.15 1007.73 31.14 1023.28 28.94 1030.29 14.89 1037.18 29"/>
                <polygon class="cls-1" points="1127.42 29 1142.96 31.32 1131.67 42.24 1134.26 57.73 1120.38 50.37 1106.45 57.62 1109.17 42.15 1097.97 31.14 1113.52 28.94 1120.53 14.89 1127.42 29"/>
                <polygon class="cls-1" points="1217.67 29 1233.2 31.32 1221.91 42.24 1224.5 57.73 1210.63 50.37 1196.69 57.62 1199.41 42.15 1188.21 31.14 1203.76 28.94 1210.77 14.89 1217.67 29"/>
                <polygon class="cls-1" points="1307.91 29 1323.44 31.32 1312.15 42.24 1314.74 57.73 1300.87 50.37 1286.94 57.62 1289.66 42.15 1278.45 31.14 1294.01 28.94 1301.02 14.89 1307.91 29"/>
                <polygon class="cls-1" points="1398.15 29 1413.68 31.32 1402.39 42.24 1404.98 57.73 1391.11 50.37 1377.18 57.62 1379.9 42.15 1368.7 31.14 1384.25 28.94 1391.26 14.89 1398.15 29"/>
                <polygon class="cls-1" points="1488.69 29 1504.23 31.32 1492.94 42.24 1495.53 57.73 1481.66 50.37 1467.72 57.62 1470.44 42.15 1459.24 31.14 1474.79 28.94 1481.8 14.89 1488.69 29"/>
                <polygon class="cls-1" points="1578.94 29 1594.47 31.32 1583.18 42.24 1585.77 57.73 1571.9 50.37 1557.97 57.62 1560.68 42.15 1549.48 31.14 1565.03 28.94 1572.04 14.89 1578.94 29"/>
                <polygon class="cls-1" points="1669.18 29 1684.71 31.32 1673.42 42.24 1676.01 57.73 1662.14 50.37 1648.21 57.62 1650.93 42.15 1639.73 31.14 1655.28 28.94 1662.29 14.89 1669.18 29"/>
                <polygon class="cls-1" points="1759.42 29 1774.95 31.32 1763.66 42.24 1766.25 57.73 1752.38 50.37 1738.45 57.62 1741.17 42.15 1729.97 31.14 1745.52 28.94 1752.53 14.89 1759.42 29"/>
                <polygon class="cls-1" points="1849.66 29 1865.2 31.32 1853.91 42.24 1856.5 57.73 1842.62 50.37 1828.69 57.62 1831.41 42.15 1820.21 31.14 1835.76 28.94 1842.77 14.89 1849.66 29"/>
              </g>
            </g>
          </g>
        </g>
      </g>
    </g>
  </g>
</svg>