<?xml version="1.0" encoding="UTF-8"?>
<svg xmlns="http://www.w3.org/2000/svg" viewBox="0 0 869 261.93">
  <defs>
    <style>
      .cls-1 {
        fill: #fff;
      }

      .cls-2 {
        isolation: isolate;
      }

      .cls-3 {
        fill: #051a35;
        mix-blend-mode: multiply;
        opacity: .9;
      }

      .cls-4 {
        fill: #ba2940;
      }
    </style>
  </defs>
  <g class="cls-2">
    <g id="Capa_2" data-name="Capa 2">
      <g id="Layer_1" data-name="Layer 1">
        <g>
          <rect class="cls-4" y="183.9" width="869" height="78.03"/>
          <g>
            <rect class="cls-3" width="869" height="151.92"/>
            <g>
              <polygon class="cls-1" points="182.77 58 213.93 62.65 191.28 84.48 196.48 115.46 168.65 100.73 140.7 115.23 146.15 84.29 123.68 62.28 154.88 57.89 168.94 29.78 182.77 58"/>
              <polygon class="cls-1" points="363.81 58 394.97 62.65 372.32 84.48 377.52 115.46 349.69 100.73 321.74 115.23 327.19 84.29 304.72 62.28 335.92 57.89 349.98 29.78 363.81 58"/>
              <polygon class="cls-1" points="544.86 58 576.02 62.65 553.36 84.48 558.56 115.46 530.73 100.73 502.78 115.23 508.24 84.29 485.76 62.28 516.96 57.89 531.03 29.78 544.86 58"/>
              <polygon class="cls-1" points="725.9 58 757.06 62.65 734.41 84.48 739.6 115.46 711.78 100.73 683.82 115.23 689.28 84.29 666.81 62.28 698.01 57.89 712.07 29.78 725.9 58"/>
            </g>
          </g>
        </g>
      </g>
    </g>
  </g>
</svg>