<?xml version="1.0" encoding="UTF-8"?>
<svg xmlns="http://www.w3.org/2000/svg" viewBox="0 0 1244 261.93">
  <defs>
    <style>
      .cls-1 {
        fill: #fff;
      }

      .cls-2 {
        isolation: isolate;
      }

      .cls-3 {
        fill: #051a35;
        mix-blend-mode: multiply;
        opacity: .9;
      }

      .cls-4 {
        fill: #ba2940;
      }
    </style>
  </defs>
  <g class="cls-2">
    <g id="Capa_2" data-name="Capa 2">
      <g id="Layer_1" data-name="Layer 1">
        <g>
          <rect class="cls-4" y="183.9" width="1244" height="78.03"/>
          <g>
            <rect class="cls-3" width="1244" height="151.92"/>
            <g>
              <polygon class="cls-1" points="195.08 58 226.24 62.65 203.59 84.48 208.78 115.46 180.95 100.73 153 115.23 158.46 84.29 135.99 62.28 167.19 57.89 181.25 29.78 195.08 58"/>
              <polygon class="cls-1" points="376.73 58 407.89 62.65 385.23 84.48 390.43 115.46 362.6 100.73 334.65 115.23 340.11 84.29 317.64 62.28 348.84 57.89 362.9 29.78 376.73 58"/>
              <polygon class="cls-1" points="557.77 58 588.93 62.65 566.28 84.48 571.48 115.46 543.65 100.73 515.7 115.23 521.15 84.29 498.68 62.28 529.88 57.89 543.94 29.78 557.77 58"/>
              <polygon class="cls-1" points="738.81 58 769.97 62.65 747.32 84.48 752.52 115.46 724.69 100.73 696.74 115.23 702.19 84.29 679.72 62.28 710.92 57.89 724.98 29.78 738.81 58"/>
              <polygon class="cls-1" points="919.86 58 951.02 62.65 928.36 84.48 933.56 115.46 905.73 100.73 877.78 115.23 883.24 84.29 860.76 62.28 891.96 57.89 906.03 29.78 919.86 58"/>
              <polygon class="cls-1" points="1100.9 58 1132.06 62.65 1109.41 84.48 1114.6 115.46 1086.78 100.73 1058.82 115.23 1064.28 84.29 1041.81 62.28 1073.01 57.89 1087.07 29.78 1100.9 58"/>
            </g>
          </g>
        </g>
      </g>
    </g>
  </g>
</svg>