<?xml version="1.0" encoding="UTF-8"?>
<svg id="Capa_2" data-name="Capa 2" xmlns="http://www.w3.org/2000/svg" viewBox="0 0 48.55 48.55">
  <defs>
    <style>
      .cls-1 {
        fill: #fff;
      }

      .cls-2 {
        fill: #01304d;
      }
    </style>
  </defs>
  <g id="Capa_1-2" data-name="Capa 1">
    <g>
      <circle class="cls-2" cx="24.28" cy="24.28" r="24.28" transform="translate(-4.79 42.55) rotate(-77.16)"/>
      <path class="cls-1" d="m38.2,16.63c-1.02.45-2.13.76-3.28.9,1.18-.71,2.08-1.82,2.51-3.16-1.1.65-2.33,1.13-3.63,1.39-1.04-1.11-2.53-1.8-4.17-1.8-3.15,0-5.71,2.56-5.71,5.71,0,.45.05.88.15,1.3-4.75-.24-8.96-2.51-11.77-5.97-.49.84-.77,1.83-.77,2.87,0,1.98,1.01,3.73,2.54,4.75-.94-.03-1.82-.29-2.59-.71,0,.02,0,.05,0,.07,0,2.77,1.97,5.08,4.58,5.6-.48.13-.98.2-1.5.2-.37,0-.73-.04-1.07-.1.73,2.27,2.84,3.92,5.34,3.97-1.95,1.53-4.42,2.45-7.09,2.45-.46,0-.92-.03-1.36-.08,2.53,1.62,5.53,2.57,8.76,2.57,10.51,0,16.25-8.7,16.25-16.25,0-.25,0-.49-.02-.74,1.12-.81,2.09-1.81,2.85-2.96h0Z"/>
    </g>
  </g>
</svg>